<?xml version="1.0" encoding="utf-8" standalone="no"?>
<!DOCTYPE svg PUBLIC "-//W3C//DTD SVG 1.1//EN"
  "http://www.w3.org/Graphics/SVG/1.1/DTD/svg11.dtd">
<!-- Created with matplotlib (https://matplotlib.org/) -->
<svg height="288pt" version="1.1" viewBox="0 0 432 288" width="432pt" xmlns="http://www.w3.org/2000/svg" xmlns:xlink="http://www.w3.org/1999/xlink">
 <metadata>
  <rdf:RDF xmlns:cc="http://creativecommons.org/ns#" xmlns:dc="http://purl.org/dc/elements/1.1/" xmlns:rdf="http://www.w3.org/1999/02/22-rdf-syntax-ns#">
   <cc:Work>
    <dc:type rdf:resource="http://purl.org/dc/dcmitype/StillImage"/>
    <dc:date>2021-04-14T15:28:39.900464</dc:date>
    <dc:format>image/svg+xml</dc:format>
    <dc:creator>
     <cc:Agent>
      <dc:title>Matplotlib v3.3.4, https://matplotlib.org/</dc:title>
     </cc:Agent>
    </dc:creator>
   </cc:Work>
  </rdf:RDF>
 </metadata>
 <defs>
  <style type="text/css">*{stroke-linecap:butt;stroke-linejoin:round;}</style>
 </defs>
 <g id="figure_1">
  <g id="patch_1">
   <path d="M 0 288 
L 432 288 
L 432 0 
L 0 0 
z
" style="fill:none;"/>
  </g>
  <g id="axes_1">
   <g id="patch_2">
    <path d="M 54 252 
L 388.8 252 
L 388.8 34.56 
L 54 34.56 
z
" style="fill:none;"/>
   </g>
   <g id="matplotlib.axis_1">
    <g id="xtick_1">
     <g id="line2d_1">
      <defs>
       <path d="M 0 0 
L 0 -3.5 
" id="m179b093fd5" style="stroke:#000000;stroke-width:0.8;"/>
      </defs>
      <g>
       <use style="stroke:#000000;stroke-width:0.8;" x="89.04608" xlink:href="#m179b093fd5" y="34.56"/>
      </g>
     </g>
     <g id="text_1">
      <!-- 25.0 -->
      <g transform="translate(79.026548 25.688281)scale(0.09 -0.09)">
       <defs>
        <path d="M 19.1875 8.296875 
L 53.609375 8.296875 
L 53.609375 0 
L 7.328125 0 
L 7.328125 8.296875 
Q 12.9375 14.109375 22.625 23.890625 
Q 32.328125 33.6875 34.8125 36.53125 
Q 39.546875 41.84375 41.421875 45.53125 
Q 43.3125 49.21875 43.3125 52.78125 
Q 43.3125 58.59375 39.234375 62.25 
Q 35.15625 65.921875 28.609375 65.921875 
Q 23.96875 65.921875 18.8125 64.3125 
Q 13.671875 62.703125 7.8125 59.421875 
L 7.8125 69.390625 
Q 13.765625 71.78125 18.9375 73 
Q 24.125 74.21875 28.421875 74.21875 
Q 39.75 74.21875 46.484375 68.546875 
Q 53.21875 62.890625 53.21875 53.421875 
Q 53.21875 48.921875 51.53125 44.890625 
Q 49.859375 40.875 45.40625 35.40625 
Q 44.1875 33.984375 37.640625 27.21875 
Q 31.109375 20.453125 19.1875 8.296875 
z
" id="DejaVuSans-50"/>
        <path d="M 10.796875 72.90625 
L 49.515625 72.90625 
L 49.515625 64.59375 
L 19.828125 64.59375 
L 19.828125 46.734375 
Q 21.96875 47.46875 24.109375 47.828125 
Q 26.265625 48.1875 28.421875 48.1875 
Q 40.625 48.1875 47.75 41.5 
Q 54.890625 34.8125 54.890625 23.390625 
Q 54.890625 11.625 47.5625 5.09375 
Q 40.234375 -1.421875 26.90625 -1.421875 
Q 22.3125 -1.421875 17.546875 -0.640625 
Q 12.796875 0.140625 7.71875 1.703125 
L 7.71875 11.625 
Q 12.109375 9.234375 16.796875 8.0625 
Q 21.484375 6.890625 26.703125 6.890625 
Q 35.15625 6.890625 40.078125 11.328125 
Q 45.015625 15.765625 45.015625 23.390625 
Q 45.015625 31 40.078125 35.4375 
Q 35.15625 39.890625 26.703125 39.890625 
Q 22.75 39.890625 18.8125 39.015625 
Q 14.890625 38.140625 10.796875 36.28125 
z
" id="DejaVuSans-53"/>
        <path d="M 10.6875 12.40625 
L 21 12.40625 
L 21 0 
L 10.6875 0 
z
" id="DejaVuSans-46"/>
        <path d="M 31.78125 66.40625 
Q 24.171875 66.40625 20.328125 58.90625 
Q 16.5 51.421875 16.5 36.375 
Q 16.5 21.390625 20.328125 13.890625 
Q 24.171875 6.390625 31.78125 6.390625 
Q 39.453125 6.390625 43.28125 13.890625 
Q 47.125 21.390625 47.125 36.375 
Q 47.125 51.421875 43.28125 58.90625 
Q 39.453125 66.40625 31.78125 66.40625 
z
M 31.78125 74.21875 
Q 44.046875 74.21875 50.515625 64.515625 
Q 56.984375 54.828125 56.984375 36.375 
Q 56.984375 17.96875 50.515625 8.265625 
Q 44.046875 -1.421875 31.78125 -1.421875 
Q 19.53125 -1.421875 13.0625 8.265625 
Q 6.59375 17.96875 6.59375 36.375 
Q 6.59375 54.828125 13.0625 64.515625 
Q 19.53125 74.21875 31.78125 74.21875 
z
" id="DejaVuSans-48"/>
       </defs>
       <use xlink:href="#DejaVuSans-50"/>
       <use x="63.623047" xlink:href="#DejaVuSans-53"/>
       <use x="127.246094" xlink:href="#DejaVuSans-46"/>
       <use x="159.033203" xlink:href="#DejaVuSans-48"/>
      </g>
     </g>
    </g>
    <g id="xtick_2">
     <g id="line2d_2">
      <g>
       <use style="stroke:#000000;stroke-width:0.8;" x="126.440531" xlink:href="#m179b093fd5" y="34.56"/>
      </g>
     </g>
     <g id="text_2">
      <!-- 33.34 -->
      <g transform="translate(113.557875 25.688281)scale(0.09 -0.09)">
       <defs>
        <path d="M 40.578125 39.3125 
Q 47.65625 37.796875 51.625 33 
Q 55.609375 28.21875 55.609375 21.1875 
Q 55.609375 10.40625 48.1875 4.484375 
Q 40.765625 -1.421875 27.09375 -1.421875 
Q 22.515625 -1.421875 17.65625 -0.515625 
Q 12.796875 0.390625 7.625 2.203125 
L 7.625 11.71875 
Q 11.71875 9.328125 16.59375 8.109375 
Q 21.484375 6.890625 26.8125 6.890625 
Q 36.078125 6.890625 40.9375 10.546875 
Q 45.796875 14.203125 45.796875 21.1875 
Q 45.796875 27.640625 41.28125 31.265625 
Q 36.765625 34.90625 28.71875 34.90625 
L 20.21875 34.90625 
L 20.21875 43.015625 
L 29.109375 43.015625 
Q 36.375 43.015625 40.234375 45.921875 
Q 44.09375 48.828125 44.09375 54.296875 
Q 44.09375 59.90625 40.109375 62.90625 
Q 36.140625 65.921875 28.71875 65.921875 
Q 24.65625 65.921875 20.015625 65.03125 
Q 15.375 64.15625 9.8125 62.3125 
L 9.8125 71.09375 
Q 15.4375 72.65625 20.34375 73.4375 
Q 25.25 74.21875 29.59375 74.21875 
Q 40.828125 74.21875 47.359375 69.109375 
Q 53.90625 64.015625 53.90625 55.328125 
Q 53.90625 49.265625 50.4375 45.09375 
Q 46.96875 40.921875 40.578125 39.3125 
z
" id="DejaVuSans-51"/>
        <path d="M 37.796875 64.3125 
L 12.890625 25.390625 
L 37.796875 25.390625 
z
M 35.203125 72.90625 
L 47.609375 72.90625 
L 47.609375 25.390625 
L 58.015625 25.390625 
L 58.015625 17.1875 
L 47.609375 17.1875 
L 47.609375 0 
L 37.796875 0 
L 37.796875 17.1875 
L 4.890625 17.1875 
L 4.890625 26.703125 
z
" id="DejaVuSans-52"/>
       </defs>
       <use xlink:href="#DejaVuSans-51"/>
       <use x="63.623047" xlink:href="#DejaVuSans-51"/>
       <use x="127.246094" xlink:href="#DejaVuSans-46"/>
       <use x="159.033203" xlink:href="#DejaVuSans-51"/>
       <use x="222.65625" xlink:href="#DejaVuSans-52"/>
      </g>
     </g>
    </g>
    <g id="xtick_3">
     <g id="line2d_3">
      <g>
       <use style="stroke:#000000;stroke-width:0.8;" x="163.834982" xlink:href="#m179b093fd5" y="34.56"/>
      </g>
     </g>
     <g id="text_3">
      <!-- 41.67 -->
      <g transform="translate(150.952326 25.688281)scale(0.09 -0.09)">
       <defs>
        <path d="M 12.40625 8.296875 
L 28.515625 8.296875 
L 28.515625 63.921875 
L 10.984375 60.40625 
L 10.984375 69.390625 
L 28.421875 72.90625 
L 38.28125 72.90625 
L 38.28125 8.296875 
L 54.390625 8.296875 
L 54.390625 0 
L 12.40625 0 
z
" id="DejaVuSans-49"/>
        <path d="M 33.015625 40.375 
Q 26.375 40.375 22.484375 35.828125 
Q 18.609375 31.296875 18.609375 23.390625 
Q 18.609375 15.53125 22.484375 10.953125 
Q 26.375 6.390625 33.015625 6.390625 
Q 39.65625 6.390625 43.53125 10.953125 
Q 47.40625 15.53125 47.40625 23.390625 
Q 47.40625 31.296875 43.53125 35.828125 
Q 39.65625 40.375 33.015625 40.375 
z
M 52.59375 71.296875 
L 52.59375 62.3125 
Q 48.875 64.0625 45.09375 64.984375 
Q 41.3125 65.921875 37.59375 65.921875 
Q 27.828125 65.921875 22.671875 59.328125 
Q 17.53125 52.734375 16.796875 39.40625 
Q 19.671875 43.65625 24.015625 45.921875 
Q 28.375 48.1875 33.59375 48.1875 
Q 44.578125 48.1875 50.953125 41.515625 
Q 57.328125 34.859375 57.328125 23.390625 
Q 57.328125 12.15625 50.6875 5.359375 
Q 44.046875 -1.421875 33.015625 -1.421875 
Q 20.359375 -1.421875 13.671875 8.265625 
Q 6.984375 17.96875 6.984375 36.375 
Q 6.984375 53.65625 15.1875 63.9375 
Q 23.390625 74.21875 37.203125 74.21875 
Q 40.921875 74.21875 44.703125 73.484375 
Q 48.484375 72.75 52.59375 71.296875 
z
" id="DejaVuSans-54"/>
        <path d="M 8.203125 72.90625 
L 55.078125 72.90625 
L 55.078125 68.703125 
L 28.609375 0 
L 18.3125 0 
L 43.21875 64.59375 
L 8.203125 64.59375 
z
" id="DejaVuSans-55"/>
       </defs>
       <use xlink:href="#DejaVuSans-52"/>
       <use x="63.623047" xlink:href="#DejaVuSans-49"/>
       <use x="127.246094" xlink:href="#DejaVuSans-46"/>
       <use x="159.033203" xlink:href="#DejaVuSans-54"/>
       <use x="222.65625" xlink:href="#DejaVuSans-55"/>
      </g>
     </g>
    </g>
    <g id="xtick_4">
     <g id="line2d_4">
      <g>
       <use style="stroke:#000000;stroke-width:0.8;" x="201.229433" xlink:href="#m179b093fd5" y="34.56"/>
      </g>
     </g>
     <g id="text_4">
      <!-- 50.0 -->
      <g transform="translate(191.209902 25.688281)scale(0.09 -0.09)">
       <use xlink:href="#DejaVuSans-53"/>
       <use x="63.623047" xlink:href="#DejaVuSans-48"/>
       <use x="127.246094" xlink:href="#DejaVuSans-46"/>
       <use x="159.033203" xlink:href="#DejaVuSans-48"/>
      </g>
     </g>
    </g>
    <g id="xtick_5">
     <g id="line2d_5">
      <g>
       <use style="stroke:#000000;stroke-width:0.8;" x="238.623884" xlink:href="#m179b093fd5" y="34.56"/>
      </g>
     </g>
     <g id="text_5">
      <!-- 58.34 -->
      <g transform="translate(225.741228 25.688281)scale(0.09 -0.09)">
       <defs>
        <path d="M 31.78125 34.625 
Q 24.75 34.625 20.71875 30.859375 
Q 16.703125 27.09375 16.703125 20.515625 
Q 16.703125 13.921875 20.71875 10.15625 
Q 24.75 6.390625 31.78125 6.390625 
Q 38.8125 6.390625 42.859375 10.171875 
Q 46.921875 13.96875 46.921875 20.515625 
Q 46.921875 27.09375 42.890625 30.859375 
Q 38.875 34.625 31.78125 34.625 
z
M 21.921875 38.8125 
Q 15.578125 40.375 12.03125 44.71875 
Q 8.5 49.078125 8.5 55.328125 
Q 8.5 64.0625 14.71875 69.140625 
Q 20.953125 74.21875 31.78125 74.21875 
Q 42.671875 74.21875 48.875 69.140625 
Q 55.078125 64.0625 55.078125 55.328125 
Q 55.078125 49.078125 51.53125 44.71875 
Q 48 40.375 41.703125 38.8125 
Q 48.828125 37.15625 52.796875 32.3125 
Q 56.78125 27.484375 56.78125 20.515625 
Q 56.78125 9.90625 50.3125 4.234375 
Q 43.84375 -1.421875 31.78125 -1.421875 
Q 19.734375 -1.421875 13.25 4.234375 
Q 6.78125 9.90625 6.78125 20.515625 
Q 6.78125 27.484375 10.78125 32.3125 
Q 14.796875 37.15625 21.921875 38.8125 
z
M 18.3125 54.390625 
Q 18.3125 48.734375 21.84375 45.5625 
Q 25.390625 42.390625 31.78125 42.390625 
Q 38.140625 42.390625 41.71875 45.5625 
Q 45.3125 48.734375 45.3125 54.390625 
Q 45.3125 60.0625 41.71875 63.234375 
Q 38.140625 66.40625 31.78125 66.40625 
Q 25.390625 66.40625 21.84375 63.234375 
Q 18.3125 60.0625 18.3125 54.390625 
z
" id="DejaVuSans-56"/>
       </defs>
       <use xlink:href="#DejaVuSans-53"/>
       <use x="63.623047" xlink:href="#DejaVuSans-56"/>
       <use x="127.246094" xlink:href="#DejaVuSans-46"/>
       <use x="159.033203" xlink:href="#DejaVuSans-51"/>
       <use x="222.65625" xlink:href="#DejaVuSans-52"/>
      </g>
     </g>
    </g>
    <g id="xtick_6">
     <g id="line2d_6">
      <g>
       <use style="stroke:#000000;stroke-width:0.8;" x="276.018335" xlink:href="#m179b093fd5" y="34.56"/>
      </g>
     </g>
     <g id="text_6">
      <!-- 66.67 -->
      <g transform="translate(263.135679 25.688281)scale(0.09 -0.09)">
       <use xlink:href="#DejaVuSans-54"/>
       <use x="63.623047" xlink:href="#DejaVuSans-54"/>
       <use x="127.246094" xlink:href="#DejaVuSans-46"/>
       <use x="159.033203" xlink:href="#DejaVuSans-54"/>
       <use x="222.65625" xlink:href="#DejaVuSans-55"/>
      </g>
     </g>
    </g>
    <g id="xtick_7">
     <g id="line2d_7">
      <g>
       <use style="stroke:#000000;stroke-width:0.8;" x="313.412786" xlink:href="#m179b093fd5" y="34.56"/>
      </g>
     </g>
     <g id="text_7">
      <!-- 75.0 -->
      <g transform="translate(303.393255 25.688281)scale(0.09 -0.09)">
       <use xlink:href="#DejaVuSans-55"/>
       <use x="63.623047" xlink:href="#DejaVuSans-53"/>
       <use x="127.246094" xlink:href="#DejaVuSans-46"/>
       <use x="159.033203" xlink:href="#DejaVuSans-48"/>
      </g>
     </g>
    </g>
    <g id="xtick_8">
     <g id="line2d_8">
      <g>
       <use style="stroke:#000000;stroke-width:0.8;" x="350.807238" xlink:href="#m179b093fd5" y="34.56"/>
      </g>
     </g>
     <g id="text_8">
      <!-- 83.34 -->
      <g transform="translate(337.924581 25.688281)scale(0.09 -0.09)">
       <use xlink:href="#DejaVuSans-56"/>
       <use x="63.623047" xlink:href="#DejaVuSans-51"/>
       <use x="127.246094" xlink:href="#DejaVuSans-46"/>
       <use x="159.033203" xlink:href="#DejaVuSans-51"/>
       <use x="222.65625" xlink:href="#DejaVuSans-52"/>
      </g>
     </g>
    </g>
    <g id="xtick_9">
     <g id="line2d_9">
      <g>
       <use style="stroke:#000000;stroke-width:0.8;" x="388.201689" xlink:href="#m179b093fd5" y="34.56"/>
      </g>
     </g>
     <g id="text_9">
      <!-- 91.67 -->
      <g transform="translate(375.319033 25.688281)scale(0.09 -0.09)">
       <defs>
        <path d="M 10.984375 1.515625 
L 10.984375 10.5 
Q 14.703125 8.734375 18.5 7.8125 
Q 22.3125 6.890625 25.984375 6.890625 
Q 35.75 6.890625 40.890625 13.453125 
Q 46.046875 20.015625 46.78125 33.40625 
Q 43.953125 29.203125 39.59375 26.953125 
Q 35.25 24.703125 29.984375 24.703125 
Q 19.046875 24.703125 12.671875 31.3125 
Q 6.296875 37.9375 6.296875 49.421875 
Q 6.296875 60.640625 12.9375 67.421875 
Q 19.578125 74.21875 30.609375 74.21875 
Q 43.265625 74.21875 49.921875 64.515625 
Q 56.59375 54.828125 56.59375 36.375 
Q 56.59375 19.140625 48.40625 8.859375 
Q 40.234375 -1.421875 26.421875 -1.421875 
Q 22.703125 -1.421875 18.890625 -0.6875 
Q 15.09375 0.046875 10.984375 1.515625 
z
M 30.609375 32.421875 
Q 37.25 32.421875 41.125 36.953125 
Q 45.015625 41.5 45.015625 49.421875 
Q 45.015625 57.28125 41.125 61.84375 
Q 37.25 66.40625 30.609375 66.40625 
Q 23.96875 66.40625 20.09375 61.84375 
Q 16.21875 57.28125 16.21875 49.421875 
Q 16.21875 41.5 20.09375 36.953125 
Q 23.96875 32.421875 30.609375 32.421875 
z
" id="DejaVuSans-57"/>
       </defs>
       <use xlink:href="#DejaVuSans-57"/>
       <use x="63.623047" xlink:href="#DejaVuSans-49"/>
       <use x="127.246094" xlink:href="#DejaVuSans-46"/>
       <use x="159.033203" xlink:href="#DejaVuSans-54"/>
       <use x="222.65625" xlink:href="#DejaVuSans-55"/>
      </g>
     </g>
    </g>
   </g>
   <g id="matplotlib.axis_2">
    <g id="ytick_1">
     <g id="line2d_10">
      <defs>
       <path d="M 0 0 
L -3.5 0 
" id="m095fba139c" style="stroke:#000000;stroke-width:0.8;"/>
      </defs>
      <g>
       <use style="stroke:#000000;stroke-width:0.8;" x="54" xlink:href="#m095fba139c" y="223.326593"/>
      </g>
     </g>
     <g id="text_10">
      <!-- MDL-Res -->
      <g transform="translate(7.6325 226.365968)scale(0.08 -0.08)">
       <defs>
        <path d="M 9.1875 72.90625 
L 33.109375 72.90625 
L 49.703125 33.890625 
L 66.40625 72.90625 
L 90.28125 72.90625 
L 90.28125 0 
L 72.515625 0 
L 72.515625 53.328125 
L 55.71875 14.015625 
L 43.796875 14.015625 
L 27 53.328125 
L 27 0 
L 9.1875 0 
z
" id="DejaVuSans-Bold-77"/>
        <path d="M 27.984375 58.6875 
L 27.984375 14.203125 
L 34.71875 14.203125 
Q 46.234375 14.203125 52.3125 19.921875 
Q 58.40625 25.640625 58.40625 36.53125 
Q 58.40625 47.359375 52.34375 53.015625 
Q 46.296875 58.6875 34.71875 58.6875 
z
M 9.1875 72.90625 
L 29 72.90625 
Q 45.609375 72.90625 53.734375 70.53125 
Q 61.859375 68.171875 67.671875 62.5 
Q 72.796875 57.5625 75.28125 51.109375 
Q 77.78125 44.671875 77.78125 36.53125 
Q 77.78125 28.265625 75.28125 21.796875 
Q 72.796875 15.328125 67.671875 10.40625 
Q 61.8125 4.734375 53.609375 2.359375 
Q 45.40625 0 29 0 
L 9.1875 0 
z
" id="DejaVuSans-Bold-68"/>
        <path d="M 9.1875 72.90625 
L 27.984375 72.90625 
L 27.984375 14.203125 
L 60.984375 14.203125 
L 60.984375 0 
L 9.1875 0 
z
" id="DejaVuSans-Bold-76"/>
        <path d="M 5.421875 35.890625 
L 36.078125 35.890625 
L 36.078125 21.6875 
L 5.421875 21.6875 
z
" id="DejaVuSans-Bold-45"/>
        <path d="M 35.890625 40.578125 
Q 41.796875 40.578125 44.359375 42.765625 
Q 46.921875 44.96875 46.921875 50 
Q 46.921875 54.984375 44.359375 57.125 
Q 41.796875 59.28125 35.890625 59.28125 
L 27.984375 59.28125 
L 27.984375 40.578125 
z
M 27.984375 27.59375 
L 27.984375 0 
L 9.1875 0 
L 9.1875 72.90625 
L 37.890625 72.90625 
Q 52.296875 72.90625 59 68.0625 
Q 65.71875 63.234375 65.71875 52.78125 
Q 65.71875 45.5625 62.21875 40.921875 
Q 58.734375 36.28125 51.703125 34.078125 
Q 55.5625 33.203125 58.609375 30.09375 
Q 61.671875 27 64.796875 20.703125 
L 75 0 
L 54.984375 0 
L 46.09375 18.109375 
Q 43.40625 23.578125 40.640625 25.578125 
Q 37.890625 27.59375 33.296875 27.59375 
z
" id="DejaVuSans-Bold-82"/>
        <path d="M 62.984375 27.484375 
L 62.984375 22.515625 
L 22.125 22.515625 
Q 22.75 16.359375 26.5625 13.28125 
Q 30.375 10.203125 37.203125 10.203125 
Q 42.71875 10.203125 48.5 11.84375 
Q 54.296875 13.484375 60.40625 16.796875 
L 60.40625 3.328125 
Q 54.203125 0.984375 48 -0.21875 
Q 41.796875 -1.421875 35.59375 -1.421875 
Q 20.75 -1.421875 12.515625 6.125 
Q 4.296875 13.671875 4.296875 27.296875 
Q 4.296875 40.671875 12.375 48.328125 
Q 20.453125 56 34.625 56 
Q 47.515625 56 55.25 48.234375 
Q 62.984375 40.484375 62.984375 27.484375 
z
M 45.015625 33.296875 
Q 45.015625 38.28125 42.109375 41.328125 
Q 39.203125 44.390625 34.515625 44.390625 
Q 29.4375 44.390625 26.265625 41.53125 
Q 23.09375 38.671875 22.3125 33.296875 
z
" id="DejaVuSans-Bold-101"/>
        <path d="M 51.125 52.984375 
L 51.125 39.703125 
Q 45.515625 42.046875 40.28125 43.21875 
Q 35.0625 44.390625 30.421875 44.390625 
Q 25.4375 44.390625 23.015625 43.140625 
Q 20.609375 41.890625 20.609375 39.3125 
Q 20.609375 37.203125 22.4375 36.078125 
Q 24.265625 34.96875 29 34.421875 
L 32.078125 33.984375 
Q 45.515625 32.28125 50.140625 28.375 
Q 54.78125 24.46875 54.78125 16.109375 
Q 54.78125 7.375 48.328125 2.96875 
Q 41.890625 -1.421875 29.109375 -1.421875 
Q 23.6875 -1.421875 17.890625 -0.5625 
Q 12.109375 0.296875 6 2 
L 6 15.28125 
Q 11.234375 12.75 16.71875 11.46875 
Q 22.21875 10.203125 27.875 10.203125 
Q 33.015625 10.203125 35.59375 11.609375 
Q 38.1875 13.03125 38.1875 15.828125 
Q 38.1875 18.171875 36.40625 19.3125 
Q 34.625 20.453125 29.296875 21.09375 
L 26.21875 21.484375 
Q 14.546875 22.953125 9.859375 26.90625 
Q 5.171875 30.859375 5.171875 38.921875 
Q 5.171875 47.609375 11.125 51.796875 
Q 17.09375 56 29.390625 56 
Q 34.234375 56 39.546875 55.265625 
Q 44.875 54.546875 51.125 52.984375 
z
" id="DejaVuSans-Bold-115"/>
       </defs>
       <use xlink:href="#DejaVuSans-Bold-77"/>
       <use x="99.511719" xlink:href="#DejaVuSans-Bold-68"/>
       <use x="182.519531" xlink:href="#DejaVuSans-Bold-76"/>
       <use x="246.240234" xlink:href="#DejaVuSans-Bold-45"/>
       <use x="287.744141" xlink:href="#DejaVuSans-Bold-82"/>
       <use x="364.746094" xlink:href="#DejaVuSans-Bold-101"/>
       <use x="432.568359" xlink:href="#DejaVuSans-Bold-115"/>
      </g>
     </g>
    </g>
    <g id="ytick_2">
     <g id="line2d_11">
      <g>
       <use style="stroke:#000000;stroke-width:0.8;" x="54" xlink:href="#m095fba139c" y="204.210989"/>
      </g>
     </g>
     <g id="text_11">
      <!-- FT-Res -->
      <g transform="translate(17.59 207.250364)scale(0.08 -0.08)">
       <defs>
        <path d="M 9.1875 72.90625 
L 59.90625 72.90625 
L 59.90625 58.6875 
L 27.984375 58.6875 
L 27.984375 45.125 
L 58.015625 45.125 
L 58.015625 30.90625 
L 27.984375 30.90625 
L 27.984375 0 
L 9.1875 0 
z
" id="DejaVuSans-Bold-70"/>
        <path d="M 0.484375 72.90625 
L 67.671875 72.90625 
L 67.671875 58.6875 
L 43.5 58.6875 
L 43.5 0 
L 24.703125 0 
L 24.703125 58.6875 
L 0.484375 58.6875 
z
" id="DejaVuSans-Bold-84"/>
       </defs>
       <use xlink:href="#DejaVuSans-Bold-70"/>
       <use x="68.310547" xlink:href="#DejaVuSans-Bold-84"/>
       <use x="121.773438" xlink:href="#DejaVuSans-Bold-45"/>
       <use x="163.277344" xlink:href="#DejaVuSans-Bold-82"/>
       <use x="240.279297" xlink:href="#DejaVuSans-Bold-101"/>
       <use x="308.101562" xlink:href="#DejaVuSans-Bold-115"/>
      </g>
     </g>
    </g>
    <g id="ytick_3">
     <g id="line2d_12">
      <g>
       <use style="stroke:#000000;stroke-width:0.8;" x="54" xlink:href="#m095fba139c" y="185.095385"/>
      </g>
     </g>
     <g id="text_12">
      <!-- ADM -->
      <g transform="translate(26.20625 188.13476)scale(0.08 -0.08)">
       <defs>
        <path d="M 53.421875 13.28125 
L 24.03125 13.28125 
L 19.390625 0 
L 0.484375 0 
L 27.484375 72.90625 
L 49.90625 72.90625 
L 76.90625 0 
L 58.015625 0 
z
M 28.71875 26.8125 
L 48.6875 26.8125 
L 38.71875 55.8125 
z
" id="DejaVuSans-Bold-65"/>
       </defs>
       <use xlink:href="#DejaVuSans-Bold-65"/>
       <use x="77.392578" xlink:href="#DejaVuSans-Bold-68"/>
       <use x="160.400391" xlink:href="#DejaVuSans-Bold-77"/>
      </g>
     </g>
    </g>
    <g id="ytick_4">
     <g id="line2d_13">
      <g>
       <use style="stroke:#000000;stroke-width:0.8;" x="54" xlink:href="#m095fba139c" y="165.97978"/>
      </g>
     </g>
     <g id="text_13">
      <!-- DM -->
      <g transform="translate(32.3975 169.019155)scale(0.08 -0.08)">
       <use xlink:href="#DejaVuSans-Bold-68"/>
       <use x="83.007812" xlink:href="#DejaVuSans-Bold-77"/>
      </g>
     </g>
    </g>
    <g id="ytick_5">
     <g id="line2d_14">
      <g>
       <use style="stroke:#000000;stroke-width:0.8;" x="54" xlink:href="#m095fba139c" y="146.864176"/>
      </g>
     </g>
     <g id="text_14">
      <!-- TTM -->
      <g transform="translate(27.94375 149.903551)scale(0.08 -0.08)">
       <use xlink:href="#DejaVuSans-Bold-84"/>
       <use x="70.462891" xlink:href="#DejaVuSans-Bold-84"/>
       <use x="138.675781" xlink:href="#DejaVuSans-Bold-77"/>
      </g>
     </g>
    </g>
    <g id="ytick_6">
     <g id="line2d_15">
      <g>
       <use style="stroke:#000000;stroke-width:0.8;" x="54" xlink:href="#m095fba139c" y="127.748571"/>
      </g>
     </g>
     <g id="text_15">
      <!-- LDR -->
      <g transform="translate(29.10125 130.787946)scale(0.08 -0.08)">
       <use xlink:href="#DejaVuSans-Bold-76"/>
       <use x="63.720703" xlink:href="#DejaVuSans-Bold-68"/>
       <use x="146.728516" xlink:href="#DejaVuSans-Bold-82"/>
      </g>
     </g>
    </g>
    <g id="ytick_7">
     <g id="line2d_16">
      <g>
       <use style="stroke:#000000;stroke-width:0.8;" x="54" xlink:href="#m095fba139c" y="108.632967"/>
      </g>
     </g>
     <g id="text_16">
      <!-- DC-Feat -->
      <g transform="translate(11.19375 111.672342)scale(0.08 -0.08)">
       <defs>
        <path d="M 67 4 
Q 61.8125 1.3125 56.203125 -0.046875 
Q 50.59375 -1.421875 44.484375 -1.421875 
Q 26.265625 -1.421875 15.625 8.765625 
Q 4.984375 18.953125 4.984375 36.375 
Q 4.984375 53.859375 15.625 64.03125 
Q 26.265625 74.21875 44.484375 74.21875 
Q 50.59375 74.21875 56.203125 72.84375 
Q 61.8125 71.484375 67 68.796875 
L 67 53.71875 
Q 61.765625 57.28125 56.6875 58.9375 
Q 51.609375 60.59375 46 60.59375 
Q 35.9375 60.59375 30.171875 54.140625 
Q 24.421875 47.703125 24.421875 36.375 
Q 24.421875 25.09375 30.171875 18.640625 
Q 35.9375 12.203125 46 12.203125 
Q 51.609375 12.203125 56.6875 13.859375 
Q 61.765625 15.53125 67 19.09375 
z
" id="DejaVuSans-Bold-67"/>
        <path d="M 32.90625 24.609375 
Q 27.4375 24.609375 24.671875 22.75 
Q 21.921875 20.90625 21.921875 17.28125 
Q 21.921875 13.96875 24.140625 12.078125 
Q 26.375 10.203125 30.328125 10.203125 
Q 35.25 10.203125 38.625 13.734375 
Q 42 17.28125 42 22.609375 
L 42 24.609375 
z
M 59.625 31.203125 
L 59.625 0 
L 42 0 
L 42 8.109375 
Q 38.484375 3.125 34.078125 0.84375 
Q 29.6875 -1.421875 23.390625 -1.421875 
Q 14.890625 -1.421875 9.59375 3.53125 
Q 4.296875 8.5 4.296875 16.40625 
Q 4.296875 26.03125 10.90625 30.515625 
Q 17.53125 35.015625 31.6875 35.015625 
L 42 35.015625 
L 42 36.375 
Q 42 40.53125 38.71875 42.453125 
Q 35.453125 44.390625 28.515625 44.390625 
Q 22.90625 44.390625 18.0625 43.265625 
Q 13.234375 42.140625 9.078125 39.890625 
L 9.078125 53.21875 
Q 14.703125 54.59375 20.359375 55.296875 
Q 26.03125 56 31.6875 56 
Q 46.484375 56 53.046875 50.171875 
Q 59.625 44.34375 59.625 31.203125 
z
" id="DejaVuSans-Bold-97"/>
        <path d="M 27.484375 70.21875 
L 27.484375 54.6875 
L 45.515625 54.6875 
L 45.515625 42.1875 
L 27.484375 42.1875 
L 27.484375 19 
Q 27.484375 15.1875 29 13.84375 
Q 30.515625 12.5 35.015625 12.5 
L 44 12.5 
L 44 0 
L 29 0 
Q 18.65625 0 14.328125 4.3125 
Q 10.015625 8.640625 10.015625 19 
L 10.015625 42.1875 
L 1.3125 42.1875 
L 1.3125 54.6875 
L 10.015625 54.6875 
L 10.015625 70.21875 
z
" id="DejaVuSans-Bold-116"/>
       </defs>
       <use xlink:href="#DejaVuSans-Bold-68"/>
       <use x="83.007812" xlink:href="#DejaVuSans-Bold-67"/>
       <use x="158.646484" xlink:href="#DejaVuSans-Bold-45"/>
       <use x="200.150391" xlink:href="#DejaVuSans-Bold-70"/>
       <use x="264.460938" xlink:href="#DejaVuSans-Bold-101"/>
       <use x="332.283203" xlink:href="#DejaVuSans-Bold-97"/>
       <use x="399.763672" xlink:href="#DejaVuSans-Bold-116"/>
      </g>
     </g>
    </g>
    <g id="ytick_8">
     <g id="line2d_17">
      <g>
       <use style="stroke:#000000;stroke-width:0.8;" x="54" xlink:href="#m095fba139c" y="89.517363"/>
      </g>
     </g>
     <g id="text_17">
      <!-- DC-Tag -->
      <g transform="translate(16.615 92.525488)scale(0.08 -0.08)">
       <defs>
        <path d="M 45.609375 9.28125 
Q 42 4.5 37.640625 2.25 
Q 33.296875 0 27.59375 0 
Q 17.578125 0 11.03125 7.875 
Q 4.5 15.765625 4.5 27.984375 
Q 4.5 40.234375 11.03125 48.0625 
Q 17.578125 55.90625 27.59375 55.90625 
Q 33.296875 55.90625 37.640625 53.65625 
Q 42 51.421875 45.609375 46.578125 
L 45.609375 54.6875 
L 63.1875 54.6875 
L 63.1875 5.515625 
Q 63.1875 -7.671875 54.859375 -14.625 
Q 46.53125 -21.578125 30.71875 -21.578125 
Q 25.59375 -21.578125 20.796875 -20.796875 
Q 16.015625 -20.015625 11.1875 -18.40625 
L 11.1875 -4.78125 
Q 15.765625 -7.421875 20.15625 -8.71875 
Q 24.5625 -10.015625 29 -10.015625 
Q 37.59375 -10.015625 41.59375 -6.25 
Q 45.609375 -2.484375 45.609375 5.515625 
z
M 34.078125 43.3125 
Q 28.65625 43.3125 25.625 39.296875 
Q 22.609375 35.296875 22.609375 27.984375 
Q 22.609375 20.453125 25.53125 16.578125 
Q 28.46875 12.703125 34.078125 12.703125 
Q 39.546875 12.703125 42.578125 16.703125 
Q 45.609375 20.703125 45.609375 27.984375 
Q 45.609375 35.296875 42.578125 39.296875 
Q 39.546875 43.3125 34.078125 43.3125 
z
" id="DejaVuSans-Bold-103"/>
       </defs>
       <use xlink:href="#DejaVuSans-Bold-68"/>
       <use x="83.007812" xlink:href="#DejaVuSans-Bold-67"/>
       <use x="158.646484" xlink:href="#DejaVuSans-Bold-45"/>
       <use x="185.400391" xlink:href="#DejaVuSans-Bold-84"/>
       <use x="240.738281" xlink:href="#DejaVuSans-Bold-97"/>
       <use x="308.21875" xlink:href="#DejaVuSans-Bold-103"/>
      </g>
     </g>
    </g>
    <g id="ytick_9">
     <g id="line2d_18">
      <g>
       <use style="stroke:#000000;stroke-width:0.8;" x="54" xlink:href="#m095fba139c" y="70.401758"/>
      </g>
     </g>
     <g id="text_18">
      <!-- FT-Full -->
      <g transform="translate(17.6925 73.441133)scale(0.08 -0.08)">
       <defs>
        <path d="M 7.8125 21.296875 
L 7.8125 54.6875 
L 25.390625 54.6875 
L 25.390625 49.21875 
Q 25.390625 44.78125 25.34375 38.0625 
Q 25.296875 31.34375 25.296875 29.109375 
Q 25.296875 22.515625 25.640625 19.609375 
Q 25.984375 16.703125 26.8125 15.375 
Q 27.875 13.671875 29.609375 12.734375 
Q 31.34375 11.8125 33.59375 11.8125 
Q 39.0625 11.8125 42.1875 16.015625 
Q 45.3125 20.21875 45.3125 27.6875 
L 45.3125 54.6875 
L 62.796875 54.6875 
L 62.796875 0 
L 45.3125 0 
L 45.3125 7.90625 
Q 41.359375 3.125 36.9375 0.84375 
Q 32.515625 -1.421875 27.203125 -1.421875 
Q 17.71875 -1.421875 12.765625 4.390625 
Q 7.8125 10.203125 7.8125 21.296875 
z
" id="DejaVuSans-Bold-117"/>
        <path d="M 8.40625 75.984375 
L 25.875 75.984375 
L 25.875 0 
L 8.40625 0 
z
" id="DejaVuSans-Bold-108"/>
       </defs>
       <use xlink:href="#DejaVuSans-Bold-70"/>
       <use x="68.310547" xlink:href="#DejaVuSans-Bold-84"/>
       <use x="121.773438" xlink:href="#DejaVuSans-Bold-45"/>
       <use x="163.277344" xlink:href="#DejaVuSans-Bold-70"/>
       <use x="226.587891" xlink:href="#DejaVuSans-Bold-117"/>
       <use x="297.779297" xlink:href="#DejaVuSans-Bold-108"/>
       <use x="332.056641" xlink:href="#DejaVuSans-Bold-108"/>
      </g>
     </g>
    </g>
    <g id="ytick_10">
     <g id="line2d_19">
      <g>
       <use style="stroke:#000000;stroke-width:0.8;" x="54" xlink:href="#m095fba139c" y="51.286154"/>
      </g>
     </g>
     <g id="text_19">
      <!-- Mixed-Nat -->
      <g transform="translate(0.74625 54.325529)scale(0.08 -0.08)">
       <defs>
        <path d="M 8.40625 54.6875 
L 25.875 54.6875 
L 25.875 0 
L 8.40625 0 
z
M 8.40625 75.984375 
L 25.875 75.984375 
L 25.875 61.71875 
L 8.40625 61.71875 
z
" id="DejaVuSans-Bold-105"/>
        <path d="M 22.21875 27.984375 
L 2.484375 54.6875 
L 21 54.6875 
L 32.171875 38.484375 
L 43.5 54.6875 
L 62.015625 54.6875 
L 42.28125 28.078125 
L 62.984375 0 
L 44.484375 0 
L 32.171875 17.28125 
L 20.015625 0 
L 1.515625 0 
z
" id="DejaVuSans-Bold-120"/>
        <path d="M 45.609375 46.6875 
L 45.609375 75.984375 
L 63.1875 75.984375 
L 63.1875 0 
L 45.609375 0 
L 45.609375 7.90625 
Q 42 3.078125 37.640625 0.828125 
Q 33.296875 -1.421875 27.59375 -1.421875 
Q 17.484375 -1.421875 10.984375 6.609375 
Q 4.5 14.65625 4.5 27.296875 
Q 4.5 39.9375 10.984375 47.96875 
Q 17.484375 56 27.59375 56 
Q 33.25 56 37.625 53.734375 
Q 42 51.46875 45.609375 46.6875 
z
M 34.078125 11.28125 
Q 39.703125 11.28125 42.65625 15.375 
Q 45.609375 19.484375 45.609375 27.296875 
Q 45.609375 35.109375 42.65625 39.203125 
Q 39.703125 43.3125 34.078125 43.3125 
Q 28.515625 43.3125 25.5625 39.203125 
Q 22.609375 35.109375 22.609375 27.296875 
Q 22.609375 19.484375 25.5625 15.375 
Q 28.515625 11.28125 34.078125 11.28125 
z
" id="DejaVuSans-Bold-100"/>
        <path d="M 9.1875 72.90625 
L 30.171875 72.90625 
L 56.6875 22.90625 
L 56.6875 72.90625 
L 74.515625 72.90625 
L 74.515625 0 
L 53.515625 0 
L 27 50 
L 27 0 
L 9.1875 0 
z
" id="DejaVuSans-Bold-78"/>
       </defs>
       <use xlink:href="#DejaVuSans-Bold-77"/>
       <use x="99.511719" xlink:href="#DejaVuSans-Bold-105"/>
       <use x="133.789062" xlink:href="#DejaVuSans-Bold-120"/>
       <use x="198.291016" xlink:href="#DejaVuSans-Bold-101"/>
       <use x="266.113281" xlink:href="#DejaVuSans-Bold-100"/>
       <use x="337.695312" xlink:href="#DejaVuSans-Bold-45"/>
       <use x="379.199219" xlink:href="#DejaVuSans-Bold-78"/>
       <use x="462.890625" xlink:href="#DejaVuSans-Bold-97"/>
       <use x="530.371094" xlink:href="#DejaVuSans-Bold-116"/>
      </g>
     </g>
    </g>
   </g>
   <g id="line2d_20">
    <path clip-path="url(#p873ef0966c)" d="M 146.93269 223.326593 
L 144.24029 204.210989 
L 140.201689 185.095385 
L 136.611821 165.97978 
L 144.24029 146.864176 
L 142.894089 127.748571 
L 146.035223 108.632967 
L 147.830157 89.517363 
L 146.035223 70.401758 
L 144.24029 51.286154 
" style="fill:none;stroke:#bc8f8f;stroke-linecap:square;stroke-width:1.2;"/>
    <defs>
     <path d="M 0 0.5 
C 0.132602 0.5 0.25979 0.447317 0.353553 0.353553 
C 0.447317 0.25979 0.5 0.132602 0.5 0 
C 0.5 -0.132602 0.447317 -0.25979 0.353553 -0.353553 
C 0.25979 -0.447317 0.132602 -0.5 0 -0.5 
C -0.132602 -0.5 -0.25979 -0.447317 -0.353553 -0.353553 
C -0.447317 -0.25979 -0.5 -0.132602 -0.5 0 
C -0.5 0.132602 -0.447317 0.25979 -0.353553 0.353553 
C -0.25979 0.447317 -0.132602 0.5 0 0.5 
z
" id="mc4e231bd9f" style="stroke:#bc8f8f;"/>
    </defs>
    <g clip-path="url(#p873ef0966c)">
     <use style="fill:#bc8f8f;stroke:#bc8f8f;" x="146.93269" xlink:href="#mc4e231bd9f" y="223.326593"/>
     <use style="fill:#bc8f8f;stroke:#bc8f8f;" x="144.24029" xlink:href="#mc4e231bd9f" y="204.210989"/>
     <use style="fill:#bc8f8f;stroke:#bc8f8f;" x="140.201689" xlink:href="#mc4e231bd9f" y="185.095385"/>
     <use style="fill:#bc8f8f;stroke:#bc8f8f;" x="136.611821" xlink:href="#mc4e231bd9f" y="165.97978"/>
     <use style="fill:#bc8f8f;stroke:#bc8f8f;" x="144.24029" xlink:href="#mc4e231bd9f" y="146.864176"/>
     <use style="fill:#bc8f8f;stroke:#bc8f8f;" x="142.894089" xlink:href="#mc4e231bd9f" y="127.748571"/>
     <use style="fill:#bc8f8f;stroke:#bc8f8f;" x="146.035223" xlink:href="#mc4e231bd9f" y="108.632967"/>
     <use style="fill:#bc8f8f;stroke:#bc8f8f;" x="147.830157" xlink:href="#mc4e231bd9f" y="89.517363"/>
     <use style="fill:#bc8f8f;stroke:#bc8f8f;" x="146.035223" xlink:href="#mc4e231bd9f" y="70.401758"/>
     <use style="fill:#bc8f8f;stroke:#bc8f8f;" x="144.24029" xlink:href="#mc4e231bd9f" y="51.286154"/>
    </g>
   </g>
   <g id="line2d_21">
    <path clip-path="url(#p873ef0966c)" d="M 228.153438 223.326593 
L 237.128106 204.210989 
L 216.935103 185.095385 
L 198.985766 165.97978 
L 222.768637 146.864176 
L 222.319903 127.748571 
L 222.768637 108.632967 
L 225.012304 89.517363 
L 242.512907 70.401758 
L 221.87117 51.286154 
" style="fill:none;stroke:#228b22;stroke-linecap:square;stroke-width:1.2;"/>
    <defs>
     <path d="M 0 0.5 
C 0.132602 0.5 0.25979 0.447317 0.353553 0.353553 
C 0.447317 0.25979 0.5 0.132602 0.5 0 
C 0.5 -0.132602 0.447317 -0.25979 0.353553 -0.353553 
C 0.25979 -0.447317 0.132602 -0.5 0 -0.5 
C -0.132602 -0.5 -0.25979 -0.447317 -0.353553 -0.353553 
C -0.447317 -0.25979 -0.5 -0.132602 -0.5 0 
C -0.5 0.132602 -0.447317 0.25979 -0.353553 0.353553 
C -0.25979 0.447317 -0.132602 0.5 0 0.5 
z
" id="mbb572f9788" style="stroke:#228b22;"/>
    </defs>
    <g clip-path="url(#p873ef0966c)">
     <use style="fill:#228b22;stroke:#228b22;" x="228.153438" xlink:href="#mbb572f9788" y="223.326593"/>
     <use style="fill:#228b22;stroke:#228b22;" x="237.128106" xlink:href="#mbb572f9788" y="204.210989"/>
     <use style="fill:#228b22;stroke:#228b22;" x="216.935103" xlink:href="#mbb572f9788" y="185.095385"/>
     <use style="fill:#228b22;stroke:#228b22;" x="198.985766" xlink:href="#mbb572f9788" y="165.97978"/>
     <use style="fill:#228b22;stroke:#228b22;" x="222.768637" xlink:href="#mbb572f9788" y="146.864176"/>
     <use style="fill:#228b22;stroke:#228b22;" x="222.319903" xlink:href="#mbb572f9788" y="127.748571"/>
     <use style="fill:#228b22;stroke:#228b22;" x="222.768637" xlink:href="#mbb572f9788" y="108.632967"/>
     <use style="fill:#228b22;stroke:#228b22;" x="225.012304" xlink:href="#mbb572f9788" y="89.517363"/>
     <use style="fill:#228b22;stroke:#228b22;" x="242.512907" xlink:href="#mbb572f9788" y="70.401758"/>
     <use style="fill:#228b22;stroke:#228b22;" x="221.87117" xlink:href="#mbb572f9788" y="51.286154"/>
    </g>
   </g>
   <g id="line2d_22">
    <path clip-path="url(#p873ef0966c)" d="M 206.614234 223.326593 
L 218.730036 204.210989 
L 193.600965 185.095385 
L 181.485163 165.97978 
L 198.985766 146.864176 
L 200.331966 127.748571 
L 199.883233 108.632967 
L 200.601206 89.517363 
L 221.422437 70.401758 
L 201.678166 51.286154 
" style="fill:none;stroke:#8b4513;stroke-linecap:square;stroke-width:1.2;"/>
    <defs>
     <path d="M 0 0.5 
C 0.132602 0.5 0.25979 0.447317 0.353553 0.353553 
C 0.447317 0.25979 0.5 0.132602 0.5 0 
C 0.5 -0.132602 0.447317 -0.25979 0.353553 -0.353553 
C 0.25979 -0.447317 0.132602 -0.5 0 -0.5 
C -0.132602 -0.5 -0.25979 -0.447317 -0.353553 -0.353553 
C -0.447317 -0.25979 -0.5 -0.132602 -0.5 0 
C -0.5 0.132602 -0.447317 0.25979 -0.353553 0.353553 
C -0.25979 0.447317 -0.132602 0.5 0 0.5 
z
" id="m38b837c8c3" style="stroke:#8b4513;"/>
    </defs>
    <g clip-path="url(#p873ef0966c)">
     <use style="fill:#8b4513;stroke:#8b4513;" x="206.614234" xlink:href="#m38b837c8c3" y="223.326593"/>
     <use style="fill:#8b4513;stroke:#8b4513;" x="218.730036" xlink:href="#m38b837c8c3" y="204.210989"/>
     <use style="fill:#8b4513;stroke:#8b4513;" x="193.600965" xlink:href="#m38b837c8c3" y="185.095385"/>
     <use style="fill:#8b4513;stroke:#8b4513;" x="181.485163" xlink:href="#m38b837c8c3" y="165.97978"/>
     <use style="fill:#8b4513;stroke:#8b4513;" x="198.985766" xlink:href="#m38b837c8c3" y="146.864176"/>
     <use style="fill:#8b4513;stroke:#8b4513;" x="200.331966" xlink:href="#m38b837c8c3" y="127.748571"/>
     <use style="fill:#8b4513;stroke:#8b4513;" x="199.883233" xlink:href="#m38b837c8c3" y="108.632967"/>
     <use style="fill:#8b4513;stroke:#8b4513;" x="200.601206" xlink:href="#m38b837c8c3" y="89.517363"/>
     <use style="fill:#8b4513;stroke:#8b4513;" x="221.422437" xlink:href="#m38b837c8c3" y="70.401758"/>
     <use style="fill:#8b4513;stroke:#8b4513;" x="201.678166" xlink:href="#m38b837c8c3" y="51.286154"/>
    </g>
   </g>
   <g id="line2d_23">
    <path clip-path="url(#p873ef0966c)" d="M 127.18842 223.326593 
L 128.53462 204.210989 
L 120.457419 185.095385 
L 111.48275 165.97978 
L 124.496019 146.864176 
L 128.983353 127.748571 
L 126.739686 108.632967 
L 125.84222 89.517363 
L 129.432087 70.401758 
L 127.18842 51.286154 
" style="fill:none;stroke:#ff7f50;stroke-linecap:square;stroke-width:1.2;"/>
    <defs>
     <path d="M 0 0.5 
C 0.132602 0.5 0.25979 0.447317 0.353553 0.353553 
C 0.447317 0.25979 0.5 0.132602 0.5 0 
C 0.5 -0.132602 0.447317 -0.25979 0.353553 -0.353553 
C 0.25979 -0.447317 0.132602 -0.5 0 -0.5 
C -0.132602 -0.5 -0.25979 -0.447317 -0.353553 -0.353553 
C -0.447317 -0.25979 -0.5 -0.132602 -0.5 0 
C -0.5 0.132602 -0.447317 0.25979 -0.353553 0.353553 
C -0.25979 0.447317 -0.132602 0.5 0 0.5 
z
" id="mcfa3388840" style="stroke:#ff7f50;"/>
    </defs>
    <g clip-path="url(#p873ef0966c)">
     <use style="fill:#ff7f50;stroke:#ff7f50;" x="127.18842" xlink:href="#mcfa3388840" y="223.326593"/>
     <use style="fill:#ff7f50;stroke:#ff7f50;" x="128.53462" xlink:href="#mcfa3388840" y="204.210989"/>
     <use style="fill:#ff7f50;stroke:#ff7f50;" x="120.457419" xlink:href="#mcfa3388840" y="185.095385"/>
     <use style="fill:#ff7f50;stroke:#ff7f50;" x="111.48275" xlink:href="#mcfa3388840" y="165.97978"/>
     <use style="fill:#ff7f50;stroke:#ff7f50;" x="124.496019" xlink:href="#mcfa3388840" y="146.864176"/>
     <use style="fill:#ff7f50;stroke:#ff7f50;" x="128.983353" xlink:href="#mcfa3388840" y="127.748571"/>
     <use style="fill:#ff7f50;stroke:#ff7f50;" x="126.739686" xlink:href="#mcfa3388840" y="108.632967"/>
     <use style="fill:#ff7f50;stroke:#ff7f50;" x="125.84222" xlink:href="#mcfa3388840" y="89.517363"/>
     <use style="fill:#ff7f50;stroke:#ff7f50;" x="129.432087" xlink:href="#mcfa3388840" y="70.401758"/>
     <use style="fill:#ff7f50;stroke:#ff7f50;" x="127.18842" xlink:href="#mcfa3388840" y="51.286154"/>
    </g>
   </g>
   <g id="line2d_24">
    <path clip-path="url(#p873ef0966c)" d="M 176.100362 223.326593 
L 185.972497 204.210989 
L 163.535826 185.095385 
L 143.791556 165.97978 
L 172.061761 146.864176 
L 172.061761 127.748571 
L 173.407961 108.632967 
L 172.061761 89.517363 
L 186.869964 70.401758 
L 170.715561 51.286154 
" style="fill:none;stroke:#5f9ea0;stroke-linecap:square;stroke-width:1.2;"/>
    <defs>
     <path d="M 0 0.5 
C 0.132602 0.5 0.25979 0.447317 0.353553 0.353553 
C 0.447317 0.25979 0.5 0.132602 0.5 0 
C 0.5 -0.132602 0.447317 -0.25979 0.353553 -0.353553 
C 0.25979 -0.447317 0.132602 -0.5 0 -0.5 
C -0.132602 -0.5 -0.25979 -0.447317 -0.353553 -0.353553 
C -0.447317 -0.25979 -0.5 -0.132602 -0.5 0 
C -0.5 0.132602 -0.447317 0.25979 -0.353553 0.353553 
C -0.25979 0.447317 -0.132602 0.5 0 0.5 
z
" id="md2c4c597fc" style="stroke:#5f9ea0;"/>
    </defs>
    <g clip-path="url(#p873ef0966c)">
     <use style="fill:#5f9ea0;stroke:#5f9ea0;" x="176.100362" xlink:href="#md2c4c597fc" y="223.326593"/>
     <use style="fill:#5f9ea0;stroke:#5f9ea0;" x="185.972497" xlink:href="#md2c4c597fc" y="204.210989"/>
     <use style="fill:#5f9ea0;stroke:#5f9ea0;" x="163.535826" xlink:href="#md2c4c597fc" y="185.095385"/>
     <use style="fill:#5f9ea0;stroke:#5f9ea0;" x="143.791556" xlink:href="#md2c4c597fc" y="165.97978"/>
     <use style="fill:#5f9ea0;stroke:#5f9ea0;" x="172.061761" xlink:href="#md2c4c597fc" y="146.864176"/>
     <use style="fill:#5f9ea0;stroke:#5f9ea0;" x="172.061761" xlink:href="#md2c4c597fc" y="127.748571"/>
     <use style="fill:#5f9ea0;stroke:#5f9ea0;" x="173.407961" xlink:href="#md2c4c597fc" y="108.632967"/>
     <use style="fill:#5f9ea0;stroke:#5f9ea0;" x="172.061761" xlink:href="#md2c4c597fc" y="89.517363"/>
     <use style="fill:#5f9ea0;stroke:#5f9ea0;" x="186.869964" xlink:href="#md2c4c597fc" y="70.401758"/>
     <use style="fill:#5f9ea0;stroke:#5f9ea0;" x="170.715561" xlink:href="#md2c4c597fc" y="51.286154"/>
    </g>
   </g>
   <g id="line2d_25">
    <path clip-path="url(#p873ef0966c)" d="M 372.645597 223.326593 
L 381.620265 204.210989 
L 306.233052 185.095385 
L 256.872376 165.97978 
L 335.849457 146.864176 
L 335.400724 127.748571 
L 335.849457 108.632967 
L 338.093124 89.517363 
L 384.312666 70.401758 
L 324.631122 51.286154 
" style="fill:none;stroke:#708090;stroke-linecap:square;stroke-width:1.2;"/>
    <defs>
     <path d="M 0 0.5 
C 0.132602 0.5 0.25979 0.447317 0.353553 0.353553 
C 0.447317 0.25979 0.5 0.132602 0.5 0 
C 0.5 -0.132602 0.447317 -0.25979 0.353553 -0.353553 
C 0.25979 -0.447317 0.132602 -0.5 0 -0.5 
C -0.132602 -0.5 -0.25979 -0.447317 -0.353553 -0.353553 
C -0.447317 -0.25979 -0.5 -0.132602 -0.5 0 
C -0.5 0.132602 -0.447317 0.25979 -0.353553 0.353553 
C -0.25979 0.447317 -0.132602 0.5 0 0.5 
z
" id="md13b4789b0" style="stroke:#708090;"/>
    </defs>
    <g clip-path="url(#p873ef0966c)">
     <use style="fill:#708090;stroke:#708090;" x="372.645597" xlink:href="#md13b4789b0" y="223.326593"/>
     <use style="fill:#708090;stroke:#708090;" x="381.620265" xlink:href="#md13b4789b0" y="204.210989"/>
     <use style="fill:#708090;stroke:#708090;" x="306.233052" xlink:href="#md13b4789b0" y="185.095385"/>
     <use style="fill:#708090;stroke:#708090;" x="256.872376" xlink:href="#md13b4789b0" y="165.97978"/>
     <use style="fill:#708090;stroke:#708090;" x="335.849457" xlink:href="#md13b4789b0" y="146.864176"/>
     <use style="fill:#708090;stroke:#708090;" x="335.400724" xlink:href="#md13b4789b0" y="127.748571"/>
     <use style="fill:#708090;stroke:#708090;" x="335.849457" xlink:href="#md13b4789b0" y="108.632967"/>
     <use style="fill:#708090;stroke:#708090;" x="338.093124" xlink:href="#md13b4789b0" y="89.517363"/>
     <use style="fill:#708090;stroke:#708090;" x="384.312666" xlink:href="#md13b4789b0" y="70.401758"/>
     <use style="fill:#708090;stroke:#708090;" x="324.631122" xlink:href="#md13b4789b0" y="51.286154"/>
    </g>
   </g>
   <g id="patch_3">
    <path d="M 54 252 
L 54 34.56 
" style="fill:none;stroke:#000000;stroke-linecap:square;stroke-linejoin:miter;stroke-width:0.8;"/>
   </g>
   <g id="patch_4">
    <path d="M 54 34.56 
L 388.8 34.56 
" style="fill:none;stroke:#000000;stroke-linecap:square;stroke-linejoin:miter;stroke-width:0.8;"/>
   </g>
   <g id="text_20">
    <!-- MED -->
    <g transform="translate(139.165818 236.653534)scale(0.05 -0.05)">
     <defs>
      <path d="M 9.1875 72.90625 
L 59.90625 72.90625 
L 59.90625 58.6875 
L 27.984375 58.6875 
L 27.984375 45.125 
L 58.015625 45.125 
L 58.015625 30.90625 
L 27.984375 30.90625 
L 27.984375 14.203125 
L 60.984375 14.203125 
L 60.984375 0 
L 9.1875 0 
z
" id="DejaVuSans-Bold-69"/>
     </defs>
     <use xlink:href="#DejaVuSans-Bold-77"/>
     <use x="99.511719" xlink:href="#DejaVuSans-Bold-69"/>
     <use x="167.822266" xlink:href="#DejaVuSans-Bold-68"/>
    </g>
   </g>
   <g id="text_21">
    <!-- LAW -->
    <g transform="translate(223.47656 236.653534)scale(0.05 -0.05)">
     <defs>
      <path d="M 2.984375 72.90625 
L 21 72.90625 
L 33.59375 19.921875 
L 46.09375 72.90625 
L 64.203125 72.90625 
L 76.703125 19.921875 
L 89.3125 72.90625 
L 107.171875 72.90625 
L 89.984375 0 
L 68.3125 0 
L 55.078125 55.421875 
L 42 0 
L 20.3125 0 
z
" id="DejaVuSans-Bold-87"/>
     </defs>
     <use xlink:href="#DejaVuSans-Bold-76"/>
     <use x="63.720703" xlink:href="#DejaVuSans-Bold-65"/>
     <use x="136.613281" xlink:href="#DejaVuSans-Bold-87"/>
    </g>
   </g>
   <g id="text_22">
    <!-- BANK -->
    <g transform="translate(197.248925 236.653534)scale(0.05 -0.05)">
     <defs>
      <path d="M 38.375 44.671875 
Q 42.828125 44.671875 45.109375 46.625 
Q 47.40625 48.578125 47.40625 52.390625 
Q 47.40625 56.15625 45.109375 58.125 
Q 42.828125 60.109375 38.375 60.109375 
L 27.984375 60.109375 
L 27.984375 44.671875 
z
M 39.015625 12.796875 
Q 44.671875 12.796875 47.53125 15.1875 
Q 50.390625 17.578125 50.390625 22.40625 
Q 50.390625 27.15625 47.5625 29.515625 
Q 44.734375 31.890625 39.015625 31.890625 
L 27.984375 31.890625 
L 27.984375 12.796875 
z
M 56.5 39.015625 
Q 62.546875 37.25 65.859375 32.515625 
Q 69.1875 27.78125 69.1875 20.90625 
Q 69.1875 10.359375 62.0625 5.171875 
Q 54.9375 0 40.375 0 
L 9.1875 0 
L 9.1875 72.90625 
L 37.40625 72.90625 
Q 52.59375 72.90625 59.40625 68.3125 
Q 66.21875 63.71875 66.21875 53.609375 
Q 66.21875 48.296875 63.71875 44.5625 
Q 61.234375 40.828125 56.5 39.015625 
z
" id="DejaVuSans-Bold-66"/>
      <path d="M 9.1875 72.90625 
L 27.984375 72.90625 
L 27.984375 46.296875 
L 55.078125 72.90625 
L 76.90625 72.90625 
L 41.796875 38.375 
L 80.515625 0 
L 56.984375 0 
L 27.984375 28.71875 
L 27.984375 0 
L 9.1875 0 
z
" id="DejaVuSans-Bold-75"/>
     </defs>
     <use xlink:href="#DejaVuSans-Bold-66"/>
     <use x="76.220703" xlink:href="#DejaVuSans-Bold-65"/>
     <use x="153.613281" xlink:href="#DejaVuSans-Bold-78"/>
     <use x="237.304688" xlink:href="#DejaVuSans-Bold-75"/>
    </g>
   </g>
   <g id="text_23">
    <!-- TALK -->
    <g transform="translate(121.707635 236.653534)scale(0.05 -0.05)">
     <use xlink:href="#DejaVuSans-Bold-84"/>
     <use x="60.462891" xlink:href="#DejaVuSans-Bold-65"/>
     <use x="137.855469" xlink:href="#DejaVuSans-Bold-76"/>
     <use x="201.576172" xlink:href="#DejaVuSans-Bold-75"/>
    </g>
   </g>
   <g id="text_24">
    <!-- IT -->
    <g transform="translate(171.969037 236.653534)scale(0.05 -0.05)">
     <defs>
      <path d="M 9.1875 72.90625 
L 27.984375 72.90625 
L 27.984375 0 
L 9.1875 0 
z
" id="DejaVuSans-Bold-73"/>
     </defs>
     <use xlink:href="#DejaVuSans-Bold-73"/>
     <use x="37.207031" xlink:href="#DejaVuSans-Bold-84"/>
    </g>
   </g>
   <g id="text_25">
    <!-- REL -->
    <g transform="translate(368.915594 236.653534)scale(0.05 -0.05)">
     <use xlink:href="#DejaVuSans-Bold-82"/>
     <use x="77.001953" xlink:href="#DejaVuSans-Bold-69"/>
     <use x="145.3125" xlink:href="#DejaVuSans-Bold-76"/>
    </g>
   </g>
   <g id="text_26">
    <!-- Domains -->
    <g transform="translate(413.386374 236.653534)scale(0.05 -0.05)">
     <defs>
      <path d="M 34.421875 43.5 
Q 28.609375 43.5 25.5625 39.328125 
Q 22.515625 35.15625 22.515625 27.296875 
Q 22.515625 19.4375 25.5625 15.25 
Q 28.609375 11.078125 34.421875 11.078125 
Q 40.140625 11.078125 43.15625 15.25 
Q 46.1875 19.4375 46.1875 27.296875 
Q 46.1875 35.15625 43.15625 39.328125 
Q 40.140625 43.5 34.421875 43.5 
z
M 34.421875 56 
Q 48.53125 56 56.46875 48.375 
Q 64.40625 40.765625 64.40625 27.296875 
Q 64.40625 13.8125 56.46875 6.1875 
Q 48.53125 -1.421875 34.421875 -1.421875 
Q 20.265625 -1.421875 12.28125 6.1875 
Q 4.296875 13.8125 4.296875 27.296875 
Q 4.296875 40.765625 12.28125 48.375 
Q 20.265625 56 34.421875 56 
z
" id="DejaVuSans-Bold-111"/>
      <path d="M 59.078125 45.609375 
Q 62.40625 50.6875 66.96875 53.34375 
Q 71.53125 56 77 56 
Q 86.421875 56 91.359375 50.1875 
Q 96.296875 44.390625 96.296875 33.296875 
L 96.296875 0 
L 78.71875 0 
L 78.71875 28.515625 
Q 78.765625 29.15625 78.78125 29.828125 
Q 78.8125 30.515625 78.8125 31.78125 
Q 78.8125 37.59375 77.09375 40.203125 
Q 75.390625 42.828125 71.578125 42.828125 
Q 66.609375 42.828125 63.890625 38.71875 
Q 61.1875 34.625 61.078125 26.859375 
L 61.078125 0 
L 43.5 0 
L 43.5 28.515625 
Q 43.5 37.59375 41.9375 40.203125 
Q 40.375 42.828125 36.375 42.828125 
Q 31.34375 42.828125 28.609375 38.703125 
Q 25.875 34.578125 25.875 26.90625 
L 25.875 0 
L 8.296875 0 
L 8.296875 54.6875 
L 25.875 54.6875 
L 25.875 46.6875 
Q 29.109375 51.3125 33.28125 53.65625 
Q 37.453125 56 42.484375 56 
Q 48.140625 56 52.484375 53.265625 
Q 56.84375 50.53125 59.078125 45.609375 
z
" id="DejaVuSans-Bold-109"/>
      <path d="M 63.375 33.296875 
L 63.375 0 
L 45.796875 0 
L 45.796875 5.421875 
L 45.796875 25.484375 
Q 45.796875 32.5625 45.484375 35.25 
Q 45.171875 37.9375 44.390625 39.203125 
Q 43.359375 40.921875 41.59375 41.875 
Q 39.84375 42.828125 37.59375 42.828125 
Q 32.125 42.828125 29 38.59375 
Q 25.875 34.375 25.875 26.90625 
L 25.875 0 
L 8.40625 0 
L 8.40625 54.6875 
L 25.875 54.6875 
L 25.875 46.6875 
Q 29.828125 51.46875 34.265625 53.734375 
Q 38.71875 56 44.09375 56 
Q 53.5625 56 58.46875 50.1875 
Q 63.375 44.390625 63.375 33.296875 
z
" id="DejaVuSans-Bold-110"/>
     </defs>
     <use xlink:href="#DejaVuSans-Bold-68"/>
     <use x="83.007812" xlink:href="#DejaVuSans-Bold-111"/>
     <use x="151.708984" xlink:href="#DejaVuSans-Bold-109"/>
     <use x="255.908203" xlink:href="#DejaVuSans-Bold-97"/>
     <use x="323.388672" xlink:href="#DejaVuSans-Bold-105"/>
     <use x="357.666016" xlink:href="#DejaVuSans-Bold-110"/>
     <use x="428.857422" xlink:href="#DejaVuSans-Bold-115"/>
    </g>
   </g>
   <g id="text_27">
    <!-- BLEU on 6 test sets -->
    <g transform="translate(172.090547 12.849688)scale(0.09 -0.09)">
     <defs>
      <path d="M 9.1875 72.90625 
L 27.984375 72.90625 
L 27.984375 29.203125 
Q 27.984375 20.171875 30.9375 16.28125 
Q 33.890625 12.40625 40.578125 12.40625 
Q 47.3125 12.40625 50.265625 16.28125 
Q 53.21875 20.171875 53.21875 29.203125 
L 53.21875 72.90625 
L 72.015625 72.90625 
L 72.015625 29.203125 
Q 72.015625 13.71875 64.25 6.140625 
Q 56.5 -1.421875 40.578125 -1.421875 
Q 24.703125 -1.421875 16.9375 6.140625 
Q 9.1875 13.71875 9.1875 29.203125 
z
" id="DejaVuSans-Bold-85"/>
      <path id="DejaVuSans-Bold-32"/>
      <path d="M 36.1875 35.984375 
Q 31.25 35.984375 28.78125 32.78125 
Q 26.3125 29.59375 26.3125 23.1875 
Q 26.3125 16.796875 28.78125 13.59375 
Q 31.25 10.40625 36.1875 10.40625 
Q 41.15625 10.40625 43.625 13.59375 
Q 46.09375 16.796875 46.09375 23.1875 
Q 46.09375 29.59375 43.625 32.78125 
Q 41.15625 35.984375 36.1875 35.984375 
z
M 59.421875 71 
L 59.421875 57.515625 
Q 54.78125 59.71875 50.671875 60.765625 
Q 46.578125 61.8125 42.671875 61.8125 
Q 34.28125 61.8125 29.59375 57.140625 
Q 24.90625 52.484375 24.125 43.3125 
Q 27.34375 45.703125 31.09375 46.890625 
Q 34.859375 48.09375 39.3125 48.09375 
Q 50.484375 48.09375 57.34375 41.546875 
Q 64.203125 35.015625 64.203125 24.421875 
Q 64.203125 12.703125 56.53125 5.640625 
Q 48.875 -1.421875 35.984375 -1.421875 
Q 21.78125 -1.421875 13.984375 8.171875 
Q 6.203125 17.78125 6.203125 35.40625 
Q 6.203125 53.46875 15.3125 63.796875 
Q 24.421875 74.125 40.28125 74.125 
Q 45.3125 74.125 50.046875 73.34375 
Q 54.78125 72.5625 59.421875 71 
z
" id="DejaVuSans-Bold-54"/>
     </defs>
     <use xlink:href="#DejaVuSans-Bold-66"/>
     <use x="76.220703" xlink:href="#DejaVuSans-Bold-76"/>
     <use x="139.941406" xlink:href="#DejaVuSans-Bold-69"/>
     <use x="208.251953" xlink:href="#DejaVuSans-Bold-85"/>
     <use x="289.453125" xlink:href="#DejaVuSans-Bold-32"/>
     <use x="324.267578" xlink:href="#DejaVuSans-Bold-111"/>
     <use x="392.96875" xlink:href="#DejaVuSans-Bold-110"/>
     <use x="464.160156" xlink:href="#DejaVuSans-Bold-32"/>
     <use x="498.974609" xlink:href="#DejaVuSans-Bold-54"/>
     <use x="568.554688" xlink:href="#DejaVuSans-Bold-32"/>
     <use x="603.369141" xlink:href="#DejaVuSans-Bold-116"/>
     <use x="651.171875" xlink:href="#DejaVuSans-Bold-101"/>
     <use x="718.994141" xlink:href="#DejaVuSans-Bold-115"/>
     <use x="778.515625" xlink:href="#DejaVuSans-Bold-116"/>
     <use x="826.318359" xlink:href="#DejaVuSans-Bold-32"/>
     <use x="861.132812" xlink:href="#DejaVuSans-Bold-115"/>
     <use x="920.654297" xlink:href="#DejaVuSans-Bold-101"/>
     <use x="988.476562" xlink:href="#DejaVuSans-Bold-116"/>
     <use x="1036.279297" xlink:href="#DejaVuSans-Bold-115"/>
    </g>
   </g>
   <g id="legend_1">
    <g id="patch_5">
     <path d="M 221.6 265.7 
L 225.2 265.7 
Q 227 265.7 227 263.9 
L 227 260.3 
Q 227 258.5 225.2 258.5 
L 221.6 258.5 
Q 219.8 258.5 219.8 260.3 
L 219.8 263.9 
Q 219.8 265.7 221.6 265.7 
z
" style="fill:#4c4c4c;opacity:0.5;stroke:#4c4c4c;stroke-linejoin:miter;"/>
    </g>
    <g id="patch_6">
     <path d="M 219.6 263.7 
L 223.2 263.7 
Q 225 263.7 225 261.9 
L 225 258.3 
Q 225 256.5 223.2 256.5 
L 219.6 256.5 
Q 217.8 256.5 217.8 258.3 
L 217.8 261.9 
Q 217.8 263.7 219.6 263.7 
z
" style="fill:#ffffff;stroke:#cccccc;stroke-linejoin:miter;"/>
    </g>
   </g>
  </g>
 </g>
 <defs>
  <clipPath id="p873ef0966c">
   <rect height="217.44" width="334.8" x="54" y="34.56"/>
  </clipPath>
 </defs>
</svg>
